<svg xmlns="http://www.w3.org/2000/svg" viewBox="0 0 36 36"><defs><style>.cls-1{fill:#92a2b4;}.cls-2{fill:#9b121f;}.cls-3{fill:#fff;}</style></defs><g id="layer"><rect class="cls-1" x="0.5" y="0.5" width="35" height="35"/><path d="M35,1V35H1V1H35m1-1H0V36H36V0Z"/><path class="cls-2" d="M22.21,15.58a7.41,7.41,0,0,1-3.23.61,5.4,5.4,0,0,1-4.06-1.54,5.55,5.55,0,0,1-1.51-4.09,6,6,0,0,1,1.68-4.4,5.82,5.82,0,0,1,4.34-1.71,7.68,7.68,0,0,1,2.78.44V7.22a5,5,0,0,0-2.6-.67A3.46,3.46,0,0,0,17,7.61a3.87,3.87,0,0,0-1,2.78,3.77,3.77,0,0,0,.95,2.68,3.31,3.31,0,0,0,2.55,1,5.32,5.32,0,0,0,2.76-.73Z"/><path class="cls-2" d="M23.7,13.13a4.72,4.72,0,0,0,3.11,1.14,2.71,2.71,0,0,0,1.49-.34,1,1,0,0,0,.5-.88,1.23,1.23,0,0,0-.4-.87,7.56,7.56,0,0,0-2.08-1.11c-1.78-.75-2.66-1.85-2.66-3.28a2.86,2.86,0,0,1,1.2-2.46,5.33,5.33,0,0,1,3.19-.88,7.78,7.78,0,0,1,2.79.44V7.16a4.61,4.61,0,0,0-2.67-.78,2.7,2.7,0,0,0-1.43.33,1,1,0,0,0-.53.87,1.15,1.15,0,0,0,.36.81,6.89,6.89,0,0,0,1.81,1,5.92,5.92,0,0,1,2.33,1.53,3,3,0,0,1,.63,1.92,2.91,2.91,0,0,1-1.16,2.49,5.44,5.44,0,0,1-3.29.86,7.08,7.08,0,0,1-3.19-.63Z"/><path class="cls-3" d="M10.17,19.64V31H7.76V19.64Z"/><path class="cls-3" d="M12.8,31V19.64h3.91c4,0,6.05,1.85,6.05,5.53a5.54,5.54,0,0,1-1.7,4.23A6.09,6.09,0,0,1,16.7,31Zm2.41-9.37V29h1.32a3.56,3.56,0,0,0,2.7-1,3.84,3.84,0,0,0,1-2.78,3.42,3.42,0,0,0-1-2.64,3.78,3.78,0,0,0-2.67-.95Z"/><path class="cls-3" d="M31.38,31H24.67V19.64h6.45v2h-4V24.3h3.75v2H27.08V29h4.3Z"/></g></svg>